<svg width="60px" height="60px" viewBox="0 0 60 60" version="1.1" xmlns="http://www.w3.org/2000/svg" xmlns:xlink="http://www.w3.org/1999/xlink">
  <!-- Generator: Sketch 50 (54983) - http://www.bohemiancoding.com/sketch -->
  <desc>Created with Sketch.</desc>
  <defs>
    <circle id="path-1" cx="30" cy="30" r="30"></circle>
    <path d="M37.8,6.55803429 C37.8,8.95803452 40.6496451,9.69039168 42.0744676,10.0565704 C46.634899,11.228599 55.7557617,13.5726562 55.7557617,13.5726562 C57.6559195,14.2415445 59.1983468,15.6809326 60,17.5165139 L60,23.4 L0,23.4 L0,17.5165139 C0.80165317,15.6809326 2.34408053,14.2415445 4.24423828,13.5726562 C4.24423828,13.5726562 13.3689245,11.2276164 17.9312675,10.0550964 C19.3541784,9.68940906 22.2,8.97949219 22.2,6.55803429 C22.2,4.1365764 22.2,3.33066907e-16 22.2,3.33066907e-16 L37.8,6.66133815e-17 C37.8,6.66133815e-17 37.8,4.15803407 37.8,6.55803429 Z"
      id="path-3"></path>
  </defs>
  <g id="Symbols" stroke="none" stroke-width="1" fill="none" fill-rule="evenodd">
    <g id="art/Avatar_default">
      <g>
        <mask id="mask-2" fill="white">
          <use xlink:href="#path-1"></use>
        </mask>
        <use id="circle" fill="#F5EEE5" xlink:href="#path-1"></use>
        <g id="body" mask="url(#mask-2)">
          <g transform="translate(0.000000, 36.600000)">
            <mask id="mask-4" fill="white">
              <use xlink:href="#path-3"></use>
            </mask>
            <use id="shoulders" stroke="none" fill="#E6C19C" fill-rule="evenodd" xlink:href="#path-3"></use>
            <path d="M29.9741207,-29.9999214 C30.0090516,-29.9999755 30.0436588,-30 30.0779307,-30 C30.0813871,-30 30.0848382,-29.9998788 30.0882839,-29.9996367 C32.0670336,-29.9927558 35.0068718,-29.877588 36.9393395,-28.7809023 C38.9441132,-27.6431826 41.3462266,-25.4118136 42.0391258,-21.5015221 C43.4970191,-13.2740807 40.7816214,-0.286664871 38.2507337,3.94023774 C35.8292132,7.98448304 32.3592524,9.47094605 30.1470314,9.59186314 C30.1292017,9.59727262 30.1112061,9.6 30.0930439,9.6 C30.0538744,9.6 30.0142283,9.599541 29.9741207,9.59861518 C29.9340131,9.599541 29.894367,9.6 29.8551974,9.6 C29.8370353,9.6 29.8190396,9.59727262 29.80121,9.59186314 C27.588989,9.47094605 24.1190281,7.98448304 21.6975077,3.94023774 C19.1666199,-0.286664871 16.4512222,-13.2740807 17.9091156,-21.5015221 C18.6020148,-25.4118136 21.0041282,-27.6431826 23.0089018,-28.7809023 C24.9413695,-29.877588 27.8812078,-29.9927558 29.8599575,-29.9996367 C29.8634032,-29.9998788 29.8668542,-30 29.8703106,-30 C29.9045826,-30 29.9391898,-29.9999755 29.9741207,-29.9999214 L29.9741207,-29.9999214 Z"
              id="head-shadow" stroke="none" fill="#D4B08C" fill-rule="evenodd" mask="url(#mask-4)"></path>
          </g>
        </g>
        <path d="M29.8551974,9.50006649 C41.2902344,9.5271661 42.2786813,17.78149 42.3455884,18.5345527 C42.9822002,25.6998376 40.5409251,35.3650521 38.2507337,38.726336 C35.8292132,42.2803698 32.3592524,43.5866554 30.1470314,43.6929159 C30.0538744,43.7000665 30.0142283,43.6996631 29.9741207,43.6988495 C29.9340131,43.6996631 29.894367,43.7000665 29.8551974,43.7000665 C27.588989,43.5866554 24.1190281,42.2803698 21.6975077,38.726336 C19.4001129,35.3544799 16.9506826,25.6389758 17.6087514,18.4670167 C17.6756334,17.7381031 18.4201605,9.47296688 29.8551974,9.50006649 Z"
          id="head" fill="#F2CEA5" mask="url(#mask-2)"></path>
      </g>
    </g>
  </g>
</svg>
