<svg width="48px" height="60px" viewBox="0 0 48 60" version="1.1" xmlns="http://www.w3.org/2000/svg" xmlns:xlink="http://www.w3.org/1999/xlink">
  <!-- Generator: Sketch 50 (54983) - http://www.bohemiancoding.com/sketch -->
  <desc>Created with Sketch.</desc>
  <defs></defs>
  <g id="Symbols" stroke="none" stroke-width="1" fill="none" fill-rule="evenodd">
    <g id="art/Gender_female">
      <g id="Shape">
        <path d="M35.4857143,45.28125 C35.4857143,45.28125 34.8427253,51.4419643 29.4197802,51.4419643 C23.9968352,51.4419643 23.9604396,46.5133929 23.9604396,46.5133929 C27.5272088,46.5133929 30.0263736,41.5848214 30.0263736,41.5848214 C31.3487473,43.0880357 35.4857143,45.28125 35.4857143,45.28125 L35.4857143,45.28125 Z" fill="#F8F8F9"></path>
        <path d="M23.9604396,46.5133929 C23.9604396,46.5133929 23.924044,51.4419643 18.5010989,51.4419643 C13.0781538,51.4419643 12.4351648,45.28125 12.4351648,45.28125 C12.4351648,45.28125 16.5721319,43.0880357 17.8945055,41.5848214 C17.8945055,41.5848214 20.3936703,46.5133929 23.9604396,46.5133929 L23.9604396,46.5133929 Z" fill="#F8F8F9"></path>
        <path d="M38.1304615,46.2669643 C46.9745934,50.0619643 47.010989,55.7544643 47.010989,55.7544643 L47.010989,58.8348214 L0.90989011,58.8348214 L0.90989011,55.7544643 C0.90989011,55.7544643 1.00694505,50.0989286 9.80254945,46.2792857 C10.6032527,45.9342857 11.4767473,45.5892857 12.4351648,45.28125 C12.4351648,45.28125 13.0781538,51.4419643 18.5010989,51.4419643 C23.924044,51.4419643 23.9604396,46.5133929 23.9604396,46.5133929 C23.9604396,46.5133929 23.9968352,51.4419643 29.4197802,51.4419643 C34.8427253,51.4419643 35.4857143,45.28125 35.4857143,45.28125 C36.4441319,45.5892857 37.3297582,45.9219643 38.1304615,46.2669643 L38.1304615,46.2669643 Z" fill="#F79C7B"></path>
        <path d="M40.9450549,10.78125 L40.9450549,25.5669643 L40.9450549,37.8883929 C40.9450549,37.8883929 40.7630769,43.3221429 38.1304615,46.2669643 C37.3297582,45.9219643 36.4441319,45.5892857 35.4857143,45.28125 C35.4857143,45.28125 31.3487473,43.0880357 30.0263736,41.5848214 L30.0263736,37.6666071 C34.5636923,35.2885714 37.3054945,30.2121429 37.3054945,24.3348214 L37.3054945,17.5580357 L32.4527473,11.3973214 C26.0107253,18.7532143 10.6153846,17.5580357 10.6153846,17.5580357 L10.6153846,24.3348214 C10.6153846,30.2121429 13.3571868,35.2885714 17.8945055,37.6666071 L17.8945055,41.5848214 C16.5721319,43.0880357 12.4351648,45.28125 12.4351648,45.28125 C11.4767473,45.5892857 10.6032527,45.9342857 9.80254945,46.2792857 C7.1578022,43.3344643 6.97582418,37.8883929 6.97582418,37.8883929 L6.97582418,25.5669643 L6.97582418,10.78125 C6.97582418,10.78125 9.43859341,0.924107143 23.9604396,0.924107143 C38.4822857,0.924107143 40.9450549,10.78125 40.9450549,10.78125 L40.9450549,10.78125 Z" fill="#A18369"></path>
        <path d="M17.8945055,37.6666071 C19.6657582,38.6030357 21.7039121,39.1205357 23.9604396,39.1205357 C26.216967,39.1205357 28.2551209,38.6030357 30.0263736,37.6666071 L30.0263736,41.5848214 C30.0263736,41.5848214 27.5272088,46.5133929 23.9604396,46.5133929 C20.3936703,46.5133929 17.8945055,41.5848214 17.8945055,41.5848214 L17.8945055,37.6666071 L17.8945055,37.6666071 Z" fill="#FFD7A3"></path>
        <path d="M30.0263736,37.6666071 C28.2551209,38.6030357 26.216967,39.1205357 23.9604396,39.1205357 C21.7039121,39.1205357 19.6657582,38.6030357 17.8945055,37.6666071 C13.3571868,35.2885714 10.6153846,30.2121429 10.6153846,24.3348214 L10.6153846,17.5580357 C10.6153846,17.5580357 26.0107253,18.7532143 32.4527473,11.3973214 L37.3054945,17.5580357 L37.3054945,24.3348214 C37.3054945,30.2121429 34.5636923,35.2885714 30.0263736,37.6666071 L30.0263736,37.6666071 Z" fill="#FFE1B2"></path>
        <path d="M39.5561987,45.9047143 C41.6687209,42.6948589 41.847302,38.1326036 41.8544598,37.9198125 L41.8549451,10.6657982 L41.8270418,10.5539196 C41.7993811,10.4432732 41.1199965,7.81277143 38.5413679,5.19853393 C34.3027358,0.901928571 28.2725908,0 23.9604396,0 C16.1478804,0 11.719142,2.82702857 9.37963253,5.19853393 C6.80088264,7.81277143 6.12149802,10.4432732 6.09383736,10.5539196 L6.06593407,10.6657982 L6.06593407,37.8883929 L6.06641934,37.9196893 C6.07357714,38.1330964 6.25240088,42.7097679 8.37717626,45.9220875 C0.198598681,49.9148464 0.00424615385,55.49325 0,55.7383232 L0,59.7589286 L47.9208791,59.7589286 L47.9208791,55.7484268 C47.919302,55.5015054 47.7836677,49.8802232 39.5561987,45.9047143 L39.5561987,45.9047143 Z M7.88571429,10.9108714 C8.02328967,10.4573196 8.70255297,8.49636429 10.6652466,6.50682321 C13.6715235,3.45911786 18.2690163,1.84821429 23.9604396,1.84821429 C29.6026075,1.84821429 34.1740167,3.43299643 37.1805363,6.43116964 C39.1824158,8.42761071 39.8935859,10.4557179 40.0351648,10.9132125 L40.0351648,37.8694179 C40.023033,38.1443089 39.7987147,42.4840393 37.853127,45.1531071 C37.2108659,44.8952196 36.5357275,44.6513786 35.8375385,44.4250339 C34.7537987,43.8453107 32.0856369,42.3096911 30.9362637,41.2079089 L30.9362637,38.2146643 C33.098284,36.9593571 34.8985319,35.0842821 36.1636431,32.7599679 C37.505913,30.29445 38.2153846,27.3811714 38.2153846,24.3348214 L38.2153846,17.2338589 L32.4896281,9.96483214 L31.7728774,10.7832214 C25.7083991,17.7079875 10.8338796,16.6483446 10.6847789,16.6366393 L9.70549451,16.5606161 L9.70549451,24.3348214 C9.70549451,27.3811714 10.4149662,30.29445 11.757236,32.7600911 C13.0224686,35.0844054 14.8225952,36.9594804 16.9846154,38.2147875 L16.9846154,41.2080321 C15.8352422,42.3098143 13.1669591,43.8454339 12.0832193,44.4252804 C11.4354989,44.6357304 10.7737055,44.8800643 10.0773363,45.1645661 C8.12119385,42.4927875 7.89760352,38.1381482 7.8858356,37.8697875 L7.8858356,10.9108714 L7.88571429,10.9108714 L7.88571429,10.9108714 Z M23.9604396,45.5892857 C21.3473565,45.5892857 19.2742629,42.1840125 18.8043956,41.3470179 L18.8043956,39.0955232 C20.4036185,39.7249018 22.1314391,40.0445196 23.9604396,40.0445196 C25.7899253,40.0445196 27.5182312,39.7247786 29.1164835,39.0956464 L29.1164835,41.3468946 C28.6455244,42.1858607 26.5727947,45.5892857 23.9604396,45.5892857 L23.9604396,45.5892857 Z M29.606247,36.8469857 C27.9123956,37.7423839 26.0127877,38.1964286 23.9604396,38.1964286 C21.9080914,38.1964286 20.0084835,37.7423839 18.3146321,36.8469857 L18.3118418,36.8453839 C16.2511226,35.7652875 14.5353125,34.0434911 13.3497864,31.8658018 C12.1561319,29.6732036 11.5252747,27.0690696 11.5252747,24.3348214 L11.5252747,18.5298268 C12.9785512,18.5813304 15.889593,18.59895 19.2367754,18.1524214 C25.102291,17.3701339 29.5190189,15.5694804 32.3875991,12.7939554 L36.3956044,17.8822125 L36.3956044,24.3348214 C36.3956044,27.0690696 35.7647473,29.6732036 34.5710927,31.8658018 C33.3856879,34.0434911 31.6698778,35.7654107 29.606247,36.8469857 L29.606247,36.8469857 Z M17.686444,43.0311107 C18.5877204,44.4235554 20.4486277,46.79235 22.9402708,47.3268536 C22.6702154,48.5024411 21.7356976,50.5178571 18.5010989,50.5178571 C14.8468589,50.5178571 13.744436,47.1808446 13.4428378,45.7811304 C14.4281881,45.2343054 16.3637064,44.1114536 17.686444,43.0311107 L17.686444,43.0311107 Z M30.2344352,43.0311107 C31.5572941,44.1113304 33.492691,45.2343054 34.4780413,45.7811304 C34.1764431,47.1808446 33.0740202,50.5178571 29.4197802,50.5178571 C27.5496527,50.5178571 26.2241248,49.8651911 25.4798347,48.5779714 C25.2257934,48.1387125 25.0776633,47.691075 24.9911631,47.3247589 C27.4775895,46.7858196 29.3344932,44.4215839 30.2344352,43.0311107 L30.2344352,43.0311107 Z M46.1010989,57.9107143 L1.81978022,57.9107143 L1.81978022,55.7661696 C1.82645275,55.5914518 2.10487912,50.6271482 10.1578919,47.1299571 C10.7109837,46.8916607 11.2352018,46.6839214 11.7453468,46.4967589 C11.9070646,47.1339 12.1817301,47.9701554 12.6383736,48.808875 C13.9054259,51.1360232 15.9327824,52.3660714 18.5010989,52.3660714 C21.5402532,52.3660714 23.1294066,50.9992554 23.9604396,49.5873429 C24.7914725,50.9992554 26.3806259,52.3660714 29.4197802,52.3660714 C31.9880967,52.3660714 34.0154532,51.1360232 35.2826268,48.808875 C35.7403622,47.9681839 36.0152703,47.1298339 36.1768668,46.4920768 C36.7317785,46.6908214 37.2684923,46.8994232 37.7763323,47.1182518 C40.130764,48.1283625 43.3014277,49.9328357 45.0367701,52.7914071 C46.0336457,54.4337304 46.0983086,55.6921179 46.1010989,55.7653071 L46.1010989,57.9107143 L46.1010989,57.9107143 Z" fill="#231F20"></path>
        <path d="M24.8703297,24.3348214 L23.0505495,24.3348214 L23.0505495,29.2633929 C23.0505495,29.7738696 23.4579376,30.1875 23.9604396,30.1875 L26.3868132,30.1875 L26.3868132,28.3392857 L24.8703297,28.3392857 L24.8703297,24.3348214 L24.8703297,24.3348214 Z" fill="#231F20"></path>
      </g>
    </g>
  </g>
</svg>