<svg width="50px" height="60px" viewBox="0 0 50 60" version="1.1" xmlns="http://www.w3.org/2000/svg" xmlns:xlink="http://www.w3.org/1999/xlink">
  <!-- Generator: Sketch 50 (54983) - http://www.bohemiancoding.com/sketch -->
  <desc>Created with Sketch.</desc>
  <defs></defs>
  <g id="Symbols" stroke="none" stroke-width="1" fill="none" fill-rule="evenodd">
    <g id="art/Gender_male">
      <g>
        <path d="M48.9689394,55.878954 L48.9689394,59.0170293 L24.9790404,59.0170293 L24.9790404,43.3266527 C28.6911616,43.3266527 31.2921717,41.4438075 31.2921717,41.4438075 C32.6684343,42.9751883 36.9739899,45.2094979 36.9739899,45.2094979 C48.9310606,48.9751883 48.9689394,55.878954 48.9689394,55.878954 L48.9689394,55.878954 Z" id="Shape" fill="#6D6E71"></path>
        <path d="M24.9790404,43.3266527 L24.9790404,59.0170293 L0.989141414,59.0170293 L0.989141414,55.878954 C0.989141414,55.878954 1.10277778,49.0128452 12.9840909,45.2094979 C12.9840909,45.2094979 17.2896465,42.9751883 18.6659091,41.4438075 C18.6659091,41.4438075 21.2669192,43.3266527 24.9790404,43.3266527 L24.9790404,43.3266527 Z" id="Shape" fill="#58595B"></path>
        <path d="M18.6659091,41.4438075 L18.6659091,37.4521757 C20.5093434,38.4061506 22.6305556,38.9333473 24.9790404,38.9333473 C27.3275253,38.9333473 29.4487374,38.4061506 31.2921717,37.4521757 L31.2921717,41.4438075 C31.2921717,41.4438075 28.6911616,43.3266527 24.9790404,43.3266527 C21.2669192,43.3266527 18.6659091,41.4438075 18.6659091,41.4438075 L18.6659091,41.4438075 Z" id="Shape" fill="#FFD7A3"></path>
        <path d="M38.8679293,16.9668201 C38.8679293,16.9668201 33.1861111,18.0714226 24.9790404,12.5735146 C24.0573232,11.9584519 11.0901515,16.9668201 11.0901515,16.9668201 L11.0901515,11.3182845 C11.0901515,11.3182845 10.5598485,1.90405858 24.9790404,1.90405858 C24.9790404,1.90405858 32.4032828,-0.920209205 39.4992424,3.1592887 C46.595202,7.23878661 40.6103535,10.4270711 47.075,13.8287448 C47.075,13.8287448 46.8098485,16.9668201 38.8679293,16.9668201 L38.8679293,16.9668201 Z" id="Shape" fill="#A18369"></path>
        <path d="M11.0901515,23.8705858 C11.0901515,24.71159 11.1406566,25.5400418 11.2542929,26.3433891 C9.29722222,26.0797908 7.30227273,24.2220502 7.30227273,22.6153556 C7.30227273,20.8831381 8.99419192,20.1048954 11.0901515,20.1048954 L11.0901515,23.8705858 L11.0901515,23.8705858 Z" id="Shape" fill="#FFD7A3"></path>
        <path d="M38.8679293,20.1048954 C40.9638889,20.1048954 42.6558081,20.8831381 42.6558081,22.6153556 C42.6558081,24.2220502 40.6608586,26.0797908 38.7037879,26.3433891 C38.8174242,25.5400418 38.8679293,24.71159 38.8679293,23.8705858 L38.8679293,20.1048954 L38.8679293,20.1048954 Z" id="Shape" fill="#FFD7A3"></path>
        <path d="M38.8679293,20.1048954 L38.8679293,23.8705858 C38.8679293,24.71159 38.8174242,25.5400418 38.7037879,26.3433891 C38.0219697,31.2513389 35.345202,35.3684937 31.2921717,37.4521757 C29.4487374,38.4061506 27.3275253,38.9333473 24.9790404,38.9333473 C22.6305556,38.9333473 20.5093434,38.4061506 18.6659091,37.4521757 C14.6128788,35.3684937 11.9361111,31.2513389 11.2542929,26.3433891 C11.1406566,25.5400418 11.0901515,24.71159 11.0901515,23.8705858 L11.0901515,20.1048954 L11.0901515,16.9668201 C11.0901515,16.9668201 24.0573232,11.9584519 24.9790404,12.5735146 C33.1861111,18.0714226 38.8679293,16.9668201 38.8679293,16.9668201 L38.8679293,20.1048954 L38.8679293,20.1048954 Z" id="Shape" fill="#FFE1B2"></path>
        <path d="M37.3402778,44.3374895 C36.2123737,43.7467782 33.4353535,42.1823849 32.2391414,41.0599582 L32.2391414,38.009749 C36.0757576,35.8290377 38.6992424,31.9164854 39.5376263,27.1272803 C41.7109848,26.5085774 43.6027778,24.4806276 43.6027778,22.6152301 C43.6027778,20.7268619 42.175,19.4738912 39.814899,19.2143096 L39.814899,17.8921757 C47.4733586,17.637364 47.9853535,14.3012134 48.0186869,13.9074477 L48.0710859,13.2876151 L47.5180556,12.9966527 C44.7979798,11.5654393 44.6637626,10.3867782 44.4777778,8.75548117 C44.270202,6.93351464 44.0118687,4.66606695 39.9733586,2.34439331 C33.0892677,-1.61359833 26.0247475,0.543891213 24.8123737,0.963012552 C19.3205808,0.99 15.2550505,2.35054393 12.7272727,5.00811715 C10.0933081,7.77740586 10.1290404,10.961046 10.1431818,11.3383682 L10.1431818,19.2143096 C7.78308081,19.4738912 6.35530303,20.7269874 6.35530303,22.6152301 C6.35530303,24.4806276 8.24709596,26.5085774 10.4204545,27.1272803 C11.2597222,31.9182427 13.8835859,35.8305439 17.7189394,38.009749 L17.7189394,41.0598326 C16.5219697,42.182887 13.7425505,43.7485356 12.6159091,44.3383682 C0.307449495,48.308159 0.0473484848,55.5561088 0.0422979798,55.8633891 L0.0421717172,59.9583264 L49.9159091,59.9583264 L49.9159091,55.873682 C49.9142677,55.5646444 49.732197,48.2708787 37.3402778,44.3374895 L37.3402778,44.3374895 Z M24.9790404,42.3852301 C22.4246212,42.3852301 20.4215909,41.3967364 19.6128788,40.9262762 L19.6128788,38.9078661 C21.2772727,39.5490377 23.0755051,39.8747699 24.9790404,39.8747699 C26.8829545,39.8747699 28.6815657,39.5490377 30.345202,38.9081172 L30.345202,40.9286611 C29.5410354,41.4 27.5526515,42.3852301 24.9790404,42.3852301 L24.9790404,42.3852301 Z M41.7088384,22.6153556 C41.7088384,23.3843096 40.872096,24.4311715 39.7813131,25.0090795 C39.8021465,24.6371548 39.814899,21.1068201 39.814899,21.1068201 C41.5027778,21.3420502 41.7088384,22.2096653 41.7088384,22.6153556 L41.7088384,22.6153556 Z M14.1035354,6.30175732 C16.2848485,4.00832636 19.9439394,2.84548117 24.9791667,2.84548117 L25.1540404,2.84497908 L25.3161616,2.78384937 C25.3864899,2.75748954 32.4237374,0.179246862 39.0253788,3.9741841 C42.2375,5.82100418 42.4036616,7.27895397 42.5959596,8.96736402 C42.7828283,10.6076987 42.9926768,12.449749 45.8454545,14.2128452 C45.3122475,14.8477406 43.8324495,15.8698745 39.8109848,16.008954 L38.6910354,16.041841 C38.6775253,16.0443515 37.3256313,16.2832218 35.0412879,15.8833054 C32.9247475,15.512636 29.5527778,14.5019247 25.5069444,11.7917573 C25.044697,11.4832218 24.4258838,11.4499582 22.1594697,12.095272 C20.9512626,12.439205 19.3414141,12.9627615 17.3746212,13.6512552 C15.3224747,14.3696234 13.2983586,15.1225105 12.0373737,15.5981172 L12.0373737,11.3182845 L12.0358586,11.2656904 C12.0342172,11.2393305 11.9126263,8.6051046 14.1035354,6.30175732 L14.1035354,6.30175732 Z M8.24924242,22.6153556 C8.24924242,22.2096653 8.45542929,21.3420502 10.1431818,21.1068201 C10.1431818,21.1068201 10.1559343,24.6371548 10.1767677,25.0090795 C9.08598485,24.431046 8.24924242,23.3843096 8.24924242,22.6153556 L8.24924242,22.6153556 Z M12.1920455,26.2123431 C12.0892677,25.4855649 12.0371212,24.6977824 12.0371212,23.8705858 L12.0371212,17.6121339 C17.4364899,15.5448954 23.3489899,13.5220921 24.6125,13.4625941 C30.9313131,17.6474059 35.8128788,18.0601255 37.9209596,17.9948536 L37.9209596,23.8705858 C37.9209596,24.6977824 37.8688131,25.4855649 37.7657828,26.2146025 C37.1145202,30.9025105 34.5964646,34.693682 30.8550505,36.6171967 C29.0921717,37.5294979 27.1151515,37.9919247 24.9791667,37.9919247 C22.8431818,37.9919247 20.8661616,37.5293724 19.1010101,36.6159414 C15.3617424,34.6935565 12.8436869,30.9023849 12.1920455,26.2123431 L12.1920455,26.2123431 Z M1.93611111,55.8903766 C1.94318182,55.7002092 2.28623737,49.6230126 13.2743687,46.1056067 C13.2743687,46.1056067 17.0574495,44.138159 18.7926768,42.6318828 C19.7431818,43.1687448 21.6188131,44.0388703 24.032197,44.2290377 L24.032197,58.0756067 L1.93623737,58.0756067 L1.93611111,55.8903766 L1.93611111,55.8903766 L1.93611111,55.8903766 Z M48.0219697,58.0756067 L25.9260101,58.0756067 L25.9260101,44.2290377 C28.3392677,44.0388703 30.2150253,43.1687448 31.1655303,42.6318828 C32.9007576,44.138159 36.6880051,46.1069874 36.6880051,46.1069874 C39.9022727,47.119205 44.2285354,49.0262762 46.5864899,52.3625523 C47.9397727,54.2772803 48.0188131,55.8091632 48.0219697,55.8892469 L48.0219697,58.0756067 L48.0219697,58.0756067 Z" id="Shape" fill="#231F20"></path>
        <path d="M24.9790404,29.8329289 L27.5042929,29.8329289 L27.5042929,27.9500837 L25.9260101,27.9500837 L25.9260101,23.8705858 L24.0320707,23.8705858 L24.0320707,28.8915063 C24.0320707,29.4114226 24.4560606,29.8329289 24.9790404,29.8329289 L24.9790404,29.8329289 Z" id="Shape" fill="#231F20"></path>
        <rect id="Rectangle-path" fill="#231F20" x="27.5042929" y="46.7785356" width="2.52525253" height="1.88284519"></rect>
        <rect id="Rectangle-path" fill="#231F20" x="27.5042929" y="50.5442259" width="2.52525253" height="1.88284519"></rect>
        <rect id="Rectangle-path" fill="#231F20" x="27.5042929" y="54.3099163" width="2.52525253" height="1.88284519"></rect>
        <rect id="Rectangle-path" fill="#231F20" x="19.9285354" y="46.7785356" width="2.52525253" height="1.88284519"></rect>
        <rect id="Rectangle-path" fill="#231F20" x="19.9285354" y="50.5442259" width="2.52525253" height="1.88284519"></rect>
        <rect id="Rectangle-path" fill="#231F20" x="19.9285354" y="54.3099163" width="2.52525253" height="1.88284519"></rect>
      </g>
    </g>
  </g>
</svg>