<?xml version="1.0" encoding="UTF-8"?>
<svg width="20px" height="20px" viewBox="0 0 50 50" version="1.1" xmlns="http://www.w3.org/2000/svg" xmlns:xlink="http://www.w3.org/1999/xlink">
    <title>icon/Seat</title>
    <desc>Created with Sketch.</desc>
    <defs>
        <path d="M19.8130839,32.8739288 L19.0674498,38.8935166 L33.3323171,38.8935166 L33.1221084,32.8739288 L19.8130839,32.8739288 Z M13.2816361,27.7534454 L8.35735079,4.78913084 C7.94901072,2.88484437 9.17533603,1.01298541 11.096425,0.608216826 C13.017514,0.203448242 14.9058894,1.41904767 15.3142295,3.32333413 L20.1390584,25.823836 L39.6788224,25.823836 C41.5130581,25.823836 43,27.4020531 43,29.3488824 C43,31.093813 41.805477,32.5426218 40.237012,32.8243566 L40.684919,45.6507335 C40.7528624,47.5963769 39.2167688,49.2291975 37.2539579,49.2977404 C35.2911471,49.3662832 33.6448955,47.8445926 33.5769521,45.8989492 L33.3929181,40.6289046 L18.8524909,40.6289046 L18.1570245,46.2434835 C17.9176722,48.1758015 16.143364,49.5499184 14.1939961,49.3126596 C12.2446283,49.0754008 10.8583867,47.3166113 11.097739,45.3842933 L13.2816361,27.7534454 Z" id="path-1"></path>
    </defs>
    <g id="icon/Seat" stroke="none" stroke-width="1" fill="none" fill-rule="evenodd">
        <rect id="Rectangle-3" x="0" y="0" width="50" height="50"></rect>
        <mask id="mask-2" fill="white">
            <use xlink:href="#path-1"></use>
        </mask>
        <use id="Combined-Shape" fill="#FFFFFF" xlink:href="#path-1"></use>
        <g id="color/Primary" mask="url(#mask-2)" fill="#ffffff">
            <rect id="Rectangle-2" x="0" y="0" width="50" height="50"></rect>
        </g>
    </g>
</svg>