<?xml version="1.0" encoding="UTF-8"?>
<svg width="50px" height="50px" viewBox="0 0 50 50" version="1.1" xmlns="http://www.w3.org/2000/svg" xmlns:xlink="http://www.w3.org/1999/xlink">
    <!-- Generator: Sketch 50 (54983) - http://www.bohemiancoding.com/sketch -->
    <title>icon/Users</title>
    <desc>Created with Sketch.</desc>
    <defs>
        <path d="M25,10 C29.5304688,10 33.203125,13.6874059 33.203125,18.2360693 C33.203125,22.7847327 29.5304688,26.4721386 25,26.4721386 C20.4695312,26.4721386 16.796875,22.7847327 16.796875,18.2360693 C16.796875,13.6874059 20.4695312,10 25,10 Z M33.8642969,27.0499184 L30.7407031,26.2658446 C26.8994531,29.0398312 22.2433594,28.4207925 19.259375,26.2658446 L16.1357813,27.0499184 C13.6316406,27.6784482 11.875,29.9373274 11.875,32.5288655 L11.875,37.2966867 C11.875,38.8562061 13.1342187,40.1204819 14.6875,40.1204819 L35.3125,40.1204819 C36.8657812,40.1204819 38.125,38.8562061 38.125,37.2966867 L38.125,32.5288655 C38.125,29.9373274 36.3683594,27.6784482 33.8642969,27.0499184 Z M41.25,28.5115462 C44.2703125,28.5115462 46.71875,26.0532756 46.71875,23.0208333 C46.71875,19.9883911 44.2703125,17.5301205 41.25,17.5301205 C38.2296875,17.5301205 35.78125,19.9883911 35.78125,23.0208333 C35.78125,26.0532756 38.2296875,28.5115462 41.25,28.5115462 Z M8.75,28.5115462 C11.7703125,28.5115462 14.21875,26.0532756 14.21875,23.0208333 C14.21875,19.9883911 11.7703125,17.5301205 8.75,17.5301205 C5.7296875,17.5301205 3.28125,19.9883911 3.28125,23.0208333 C3.28125,26.0532756 5.7296875,28.5115462 8.75,28.5115462 Z M10.625,37.2966867 L10.625,32.5288655 C10.625,31.2306256 10.9838281,30.0028238 11.6174219,28.9521367 C9.27460938,30.1067551 6.66929687,29.6351814 4.92289062,28.374043 L2.84046875,28.8967589 C1.17109375,29.3157003 0,30.8217244 0,32.549338 L0,35.7279116 C0,36.7676173 0.839453125,37.6104418 1.875,37.6104418 L10.6382031,37.6104418 C10.6298242,37.5060637 10.6254199,37.4014024 10.625,37.2966867 Z M47.1595313,28.8966805 L45.0771094,28.3739646 C42.8954688,29.9494854 40.3200781,29.8825772 38.3750781,28.9401355 C39.0132031,29.9934896 39.375,31.2256055 39.375,32.5288655 L39.375,37.2966867 C39.375,37.4023437 39.3696875,37.5067457 39.3617969,37.6104418 L48.125,37.6104418 C49.1605469,37.6104418 50,36.7676173 50,35.7279116 L50,32.549338 C50,30.8217244 48.8289063,29.3157003 47.1595313,28.8966805 Z" id="path-1"></path>
    </defs>
    <g id="icon/Users" stroke="none" stroke-width="1" fill="none" fill-rule="evenodd">
        <rect id="Rectangle-3" x="0" y="0" width="50" height="50"></rect>
        <mask id="mask-2" fill="white">
            <use xlink:href="#path-1"></use>
        </mask>
        <use id="users" fill="#ffffff" fill-rule="nonzero" xlink:href="#path-1"></use>
        <g id="color/Primary" mask="url(#mask-2)" fill="#ffffff">
            <rect id="Rectangle-2" x="0" y="0" width="50" height="50"></rect>
        </g>
    </g>
</svg>