<?xml version="1.0" encoding="UTF-8"?>
<svg width="46px" height="35px" viewBox="0 0 46 35" version="1.1" xmlns="http://www.w3.org/2000/svg" xmlns:xlink="http://www.w3.org/1999/xlink">
    <!-- Generator: Sketch 50 (54983) - http://www.bohemiancoding.com/sketch -->
    <title>component/Sofa</title>
    <desc>Created with Sketch.</desc>
    <defs></defs>
    <g id="Page-1" stroke="none" stroke-width="1" fill="none" fill-rule="evenodd">
        <g id="Groups---Member-Group-Page---Info" transform="translate(-206.000000, -283.000000)">
            <g id="Card" transform="translate(30.000000, 265.000000)">
                <g id="活动状态" transform="translate(1.000000, 15.000000)">
                    <g id="Status" transform="translate(30.000000, 0.000000)">
                        <g id="Vancancy" transform="translate(145.000000, 0.000000)">
                            <g id="component/Sofa" transform="translate(0.000000, 3.000000)">
                                <g>
                                    <path d="M36.8413471,23.7547766 L9.53350313,24.8372509 L4.67225129,27.2651203 L4.67225129,29.1976976 C4.67225129,29.9624055 5.16352368,30.5823024 5.76955975,30.5823024 L6.35414911,30.5823024 L6.71826641,33.1080756 L6.97848636,34.9121993 L9.29854263,34.9121993 L9.29854263,30.5823024 L10.1082747,30.5823024 L36.2665755,30.5823024 L37.0772607,30.5823024 L37.0772607,34.9121993 L39.397317,34.9121993 L39.657537,33.1080756 L40.0207011,30.5823024 L40.6042419,30.5823024 C41.210278,30.5823024 41.7015504,29.9624055 41.7015504,29.1976976 L41.7015504,27.2651203 L36.8413471,23.7547766 Z" id="Shape" fill="#F7B239" fill-rule="nonzero"></path>
                                    <path d="M39.1850775,3.65395189 L39.1850775,11.4934708 C37.5709608,12.235567 36.4148543,22.8798969 36.4148543,22.8798969 C36.4148543,21.3030928 9.96014572,21.3030928 9.96014572,22.8798969 C9.96014572,22.8798969 8.80403922,12.235567 7.18992248,11.4934708 L7.18992248,3.65395189 C7.18992248,1.63573883 8.44575702,0 9.99523522,0 L36.3797648,0 C37.929243,1.70920933e-15 39.1850775,1.63573883 39.1850775,3.65395189" id="Shape" fill="#C67934" fill-rule="nonzero"></path>
                                    <path d="M39.7842377,22.2497766 L39.7842377,27.2651203 L6.6783595,27.2651203 L6.6783595,22.2497766 C6.6783595,20.436512 7.9067965,18.9661512 9.42171026,18.9661512 L37.0396747,18.9661512 C38.555894,18.9661512 39.7842377,20.4363918 39.7842377,22.2497766" id="Shape" fill="#C67934" fill-rule="nonzero"></path>
                                    <path d="M13.7051906,0.0240549828 L10.8292216,0.0240549828 C8.81843992,0.0240549828 7.18872416,1.65979381 7.18872416,3.67800687 L7.18872416,11.5175258 C8.75313146,12.0717526 9.98584367,13.3303093 10.5098692,14.913488 C10.306634,9.61766323 10.0646932,3.67800687 10.0646932,3.67800687 C10.0646932,1.65979381 11.6942891,0.0240549828 13.7051906,0.0240549828" id="Shape" fill="#B26729" fill-rule="nonzero"></path>
                                    <path d="M32.6061786,0.0240549828 L35.4821476,0.0240549828 C37.4929293,0.0240549828 39.122645,1.65979381 39.122645,3.67800687 L39.122645,11.5175258 C37.5582377,12.0717526 36.3255255,13.3303093 35.8015,14.913488 C36.0047351,9.61766323 36.246676,3.67800687 36.246676,3.67800687 C36.2467959,1.65979381 34.6170801,0.0240549828 32.6061786,0.0240549828" id="Shape" fill="#B26729" fill-rule="nonzero"></path>
                                    <polyline id="Shape" fill="#E5A030" fill-rule="nonzero" points="10.4882994 30.5823024 6.78668766 30.5823024 7.24444606 33.1080756 10.4882994 33.1080756 10.4882994 30.5823024"></polyline>
                                    <polyline id="Shape" fill="#E5A030" fill-rule="nonzero" points="39.5248014 30.5823024 35.8243879 30.5823024 35.8243879 33.1080756 39.0682413 33.1080756 39.5248014 30.5823024"></polyline>
                                    <g id="Group" transform="translate(13.660853, 7.577320)" fill="#B26729" fill-rule="nonzero">
                                        <path d="M4.79208333,2.00859107 L3.5338469,2.00859107 L3.5338469,0.745704467 C3.5338469,0.347113402 3.2118582,0.0240549828 2.81485465,0.0240549828 C2.4178511,0.0240549828 2.0958624,0.347113402 2.0958624,0.745704467 L2.0958624,2.00859107 L0.837625969,2.00859107 C0.440622416,2.00859107 0.118633721,2.33164948 0.118633721,2.73024055 C0.118633721,3.12883162 0.440622416,3.45189003 0.837625969,3.45189003 L2.0958624,3.45189003 L2.0958624,4.71477663 C2.0958624,5.1133677 2.4178511,5.43642612 2.81485465,5.43642612 C3.2118582,5.43642612 3.5338469,5.1133677 3.5338469,4.71477663 L3.5338469,3.45189003 L4.79208333,3.45189003 C5.18908689,3.45189003 5.51107558,3.12883162 5.51107558,2.73024055 C5.51107558,2.33164948 5.18908689,2.00859107 4.79208333,2.00859107 Z" id="Shape"></path>
                                        <path d="M18.3918217,2.00859107 L17.1335853,2.00859107 L17.1335853,0.745704467 C17.1335853,0.347113402 16.8115966,0.0240549828 16.414593,0.0240549828 C16.0175895,0.0240549828 15.6956008,0.347113402 15.6956008,0.745704467 L15.6956008,2.00859107 L14.4373643,2.00859107 C14.0403608,2.00859107 13.7183721,2.33164948 13.7183721,2.73024055 C13.7183721,3.12883162 14.0403608,3.45189003 14.4373643,3.45189003 L15.6956008,3.45189003 L15.6956008,4.71477663 C15.6956008,5.1133677 16.0175895,5.43642612 16.414593,5.43642612 C16.8115966,5.43642612 17.1335853,5.1133677 17.1335853,4.71477663 L17.1335853,3.45189003 L18.3918217,3.45189003 C18.7888253,3.45189003 19.110814,3.12883162 19.110814,2.73024055 C19.110814,2.33164948 18.7889451,2.00859107 18.3918217,2.00859107 Z" id="Shape"></path>
                                    </g>
                                    <path d="M35.6645806,15.9026289 C35.6616228,15.916701 35.658665,15.9306529 35.6557073,15.9446048 C35.2410127,17.877543 33.936556,19.1843299 32.4782091,19.1843299 L13.861494,19.1843299 C12.4031471,19.1843299 11.0987774,17.877543 10.6839959,15.9446048 C10.6810381,15.9306529 10.6780804,15.916701 10.6751226,15.9026289 C10.5528108,15.3162887 10.5097494,14.913488 10.5097494,14.913488 L10.7086148,27.2651203 L12.6224559,27.2651203 L12.6224559,22.9039519 C12.6224559,22.855 12.6233258,22.8064089 12.6250657,22.7580584 C12.6705629,21.5091237 13.4447986,20.5474055 14.3492625,20.5474055 L31.9903537,20.5474055 C32.8948175,20.5474055 33.6690533,21.5091237 33.7145505,22.7580584 C33.7162903,22.8064089 33.7171603,22.855 33.7171603,22.9039519 L33.7171603,27.2651203 L35.6310013,27.2651203 L35.8297804,14.913488 C35.8297804,14.913488 35.7868924,15.3162887 35.6645806,15.9026289 Z" id="Shape" fill="#B26729" fill-rule="nonzero"></path>
                                    <path d="M46.311489,16.6207904 C46.311489,19.3654639 44.276741,21.6314433 41.6380394,21.9838488 L41.6380394,27.2651203 L35.5278036,27.2651203 L35.5278036,22.9039519 L35.5278036,16.6207904 C35.5278036,14.2646048 37.0281008,12.259622 39.1227649,11.5175258 C39.6847771,11.3178694 40.2887306,11.209622 40.9190472,11.209622 C43.8980717,11.209622 46.311489,13.6319588 46.311489,16.6207904 Z" id="Shape" fill="#C67934" fill-rule="nonzero"></path>
                                    <path d="M40.9190472,14.7156357 C41.9783624,14.7156357 42.8363598,15.5768041 42.8363598,16.6400344 C42.8363598,17.7032646 41.9783624,18.564433 40.9190472,18.564433 C39.8609302,18.564433 39.0017345,17.7032646 39.0017345,16.6400344 C39.0017345,15.5768041 39.8609302,14.7156357 40.9190472,14.7156357 Z" id="Shape" fill="#F7B239" fill-rule="nonzero"></path>
                                    <path d="M40.359791,16.6400344 C40.359791,15.8172337 40.8753085,15.1174742 41.5982552,14.8421649 C41.3868714,14.761701 41.1585914,14.7156357 40.9189273,14.7156357 C39.8608104,14.7156357 39.0016147,15.5768041 39.0016147,16.6400344 C39.0016147,17.7032646 39.8608104,18.564433 40.9189273,18.564433 C41.1584716,18.564433 41.3868714,18.5183677 41.5982552,18.4379038 C40.8753085,18.1625945 40.359791,17.4627148 40.359791,16.6400344 Z" id="Shape" fill="#E5A030" fill-rule="nonzero"></path>
                                    <path d="M10.7836854,22.9039519 L10.7836854,27.2651203 L4.67225129,27.2651203 L4.67225129,21.9838488 C2.03474806,21.6314433 0,19.3654639 0,16.6207904 C0,13.6319588 2.41341731,11.209622 5.39124354,11.209622 C6.02156008,11.209622 6.62671189,11.3178694 7.18872416,11.5175258 C9.28338824,12.259622 10.7836854,14.2646048 10.7836854,16.6207904 L10.7836854,22.9039519" id="Shape" fill="#C67934" fill-rule="nonzero"></path>
                                    <path d="M5.39124354,14.7156357 C6.45055879,14.7156357 7.3085562,15.5768041 7.3085562,16.6400344 C7.3085562,17.7032646 6.45055879,18.564433 5.39124354,18.564433 C4.33312661,18.564433 3.47393088,17.7032646 3.47393088,16.6400344 C3.47393088,15.5768041 4.33312661,14.7156357 5.39124354,14.7156357" id="Shape" fill="#F7B239" fill-rule="nonzero"></path>
                                    <path d="M4.8319874,16.6400344 C4.8319874,15.8172337 5.34750484,15.1174742 6.07045155,14.8421649 C5.85906783,14.761701 5.63078779,14.7156357 5.39112371,14.7156357 C4.33300678,14.7156357 3.47381105,15.5768041 3.47381105,16.6400344 C3.47381105,17.7032646 4.33300678,18.564433 5.39112371,18.564433 C5.63066796,18.564433 5.85906783,18.5183677 6.07045155,18.4379038 C5.34750484,18.1625945 4.8319874,17.4627148 4.8319874,16.6400344 Z" id="Shape" fill="#E5A030" fill-rule="nonzero"></path>
                                </g>
                            </g>
                        </g>
                    </g>
                </g>
            </g>
        </g>
    </g>
</svg>